<?xml version="1.0" standalone="no"?>
<!DOCTYPE svg PUBLIC "-//W3C//DTD SVG 20010904//EN"
 "http://www.w3.org/TR/2001/REC-SVG-20010904/DTD/svg10.dtd">
<svg version="1.0" xmlns="http://www.w3.org/2000/svg"
 width="200.000000pt" height="200.000000pt" viewBox="0 0 200.000000 200.000000"
 preserveAspectRatio="xMidYMid meet">

<g transform="translate(0.000000,200.000000) scale(0.100000,-0.100000)"
fill="#000000" stroke="none">
<path d="M918 1833 c-27 -2 -48 -8 -48 -13 0 -5 -7 -7 -15 -4 -8 4 -23 3 -32
-1 -23 -10 -31 -13 -68 -20 -16 -3 -35 -11 -42 -16 -6 -6 -24 -12 -40 -14 -15
-1 -29 -8 -31 -14 -2 -6 -10 -11 -19 -11 -20 0 -74 -39 -68 -50 3 -4 -3 -6
-14 -3 -12 3 -26 -5 -40 -23 -11 -14 -21 -23 -21 -19 0 4 -20 -12 -44 -35 -25
-24 -42 -49 -39 -57 4 -9 0 -11 -11 -7 -10 4 -18 -1 -23 -12 -4 -10 -17 -28
-30 -40 -19 -17 -23 -29 -19 -55 3 -19 3 -28 0 -21 -8 18 -27 15 -20 -4 7 -18
-10 -54 -26 -54 -16 0 -37 -32 -38 -58 0 -13 -5 -32 -10 -43 -6 -11 -13 -36
-16 -56 -2 -21 -12 -48 -20 -61 -9 -14 -11 -21 -5 -18 12 8 15 -7 4 -18 -5 -4
-8 -53 -8 -109 0 -56 1 -87 3 -69 2 17 6 32 10 32 4 0 6 -43 6 -95 -1 -65 1
-93 9 -88 7 4 8 -1 4 -13 -7 -18 -6 -18 9 1 15 19 15 19 9 -10 -5 -20 -4 -26
3 -16 7 9 9 1 7 -28 -1 -22 2 -38 6 -35 8 5 14 -18 10 -40 -1 -5 5 -6 13 -3
15 6 37 -19 36 -40 -1 -4 -7 3 -14 16 -8 15 -16 20 -20 12 -4 -6 4 -22 17 -35
14 -14 22 -27 19 -30 -3 -3 6 -7 19 -7 17 -1 19 -3 7 -6 -23 -6 -23 -16 2 -38
11 -10 26 -15 36 -11 14 5 15 4 5 -8 -15 -18 -5 -40 16 -32 9 4 11 2 7 -6 -8
-13 104 -121 151 -145 17 -9 32 -19 35 -22 11 -15 92 -51 101 -46 5 4 9 2 9
-3 0 -10 7 -13 95 -37 48 -13 67 -16 165 -30 51 -7 203 8 258 26 102 33 175
63 207 85 20 13 38 24 41 24 8 0 128 98 149 122 101 113 169 237 207 376 29
108 29 296 0 404 -52 193 -174 372 -323 473 -24 16 -46 33 -49 36 -8 11 -86
48 -142 68 -121 45 -262 65 -380 54z m-481 -258 c-4 -8 -12 -15 -19 -14 -10 0
-10 2 0 6 6 2 12 12 12 21 0 8 3 13 6 9 4 -3 4 -13 1 -22z m633 -185 c103 -23
215 -111 264 -209 14 -27 31 -81 37 -120 11 -64 10 -73 -6 -91 -21 -23 -57
-26 -74 -6 -6 8 -16 38 -21 68 -18 113 -73 187 -170 232 -89 42 -232 30 -263
-21 -5 -7 -13 -11 -18 -7 -14 8 -82 -63 -73 -77 4 -8 3 -9 -4 -5 -7 4 -12 1
-12 -8 0 -9 -4 -16 -10 -16 -5 0 -9 -3 -8 -7 1 -5 -3 -19 -9 -33 -5 -14 -11
-53 -12 -86 -5 -147 109 -272 264 -293 59 -8 75 -20 75 -57 0 -77 -149 -65
-277 22 -33 24 -64 41 -67 38 -3 -2 -4 -1 -2 2 3 3 -11 29 -30 56 -19 28 -34
55 -34 60 0 5 -3 7 -7 5 -5 -3 -9 5 -10 16 -3 47 -16 106 -22 103 -8 -5 -5 51
5 113 4 25 7 49 6 54 -1 4 3 7 9 7 7 0 9 9 6 21 -3 12 -3 18 0 15 3 -3 20 18
37 47 30 50 107 132 123 132 5 0 33 10 63 22 30 12 64 24 75 26 37 8 120 7
165 -3z m-835 -180 c-3 -6 -12 -10 -18 -10 -9 0 -8 3 1 8 7 5 10 17 7 28 -6
17 -6 18 5 1 6 -9 8 -22 5 -27z m-4 -71 c-5 -13 -10 -19 -10 -12 -1 15 10 45
15 40 3 -2 0 -15 -5 -28z m-24 -31 c-3 -7 -5 -2 -5 12 0 14 2 19 5 13 2 -7 2
-19 0 -25z m43 -3 c0 -8 -7 -15 -16 -15 -14 0 -14 3 -4 15 7 8 14 15 16 15 2
0 4 -7 4 -15z m-51 -52 c1 -7 -3 -13 -9 -13 -5 0 -10 15 -9 33 0 27 2 29 9 12
5 -11 9 -26 9 -32z m28 -5 c-3 -8 -6 -5 -6 6 -1 11 2 17 5 13 3 -3 4 -12 1
-19z m1345 -125 c9 -11 12 -27 9 -41 -8 -31 -250 -272 -273 -272 -32 0 -188
154 -188 186 0 25 29 48 63 49 20 1 34 -1 32 -5 -2 -4 18 -29 45 -55 l50 -49
101 102 c104 106 131 120 161 85z m-1360 -43 c-2 -16 -6 -30 -8 -30 -2 0 -4
14 -4 30 0 17 4 30 8 30 5 0 7 -13 4 -30z m386 -25 c-3 -3 -9 2 -12 12 -6 14
-5 15 5 6 7 -7 10 -15 7 -18z m-348 -4 c0 -6 -4 -13 -10 -16 -5 -3 -10 1 -10
9 0 9 5 16 10 16 6 0 10 -4 10 -9z m-35 -35 c0 -15 -4 -21 -9 -16 -5 5 -6 16
-3 24 9 22 12 20 12 -8z"/>
<path d="M265 1380 c3 -5 8 -10 11 -10 2 0 4 5 4 10 0 6 -5 10 -11 10 -5 0 -7
-4 -4 -10z"/>
</g>
</svg>
